<?xml version="1.0" encoding="UTF-8" standalone="no"?>
<svg
   width="35.0126"
   height="39.000004"
   viewBox="0 0 35.0126 39.000004"
   fill="none"
   version="1.1"
   id="svg21"
   sodipodi:docname="path15.svg"
   inkscape:version="1.4.2 (f4327f4, 2025-05-13)"
   xmlns:inkscape="http://www.inkscape.org/namespaces/inkscape"
   xmlns:sodipodi="http://sodipodi.sourceforge.net/DTD/sodipodi-0.dtd"
   xmlns="http://www.w3.org/2000/svg"
   xmlns:svg="http://www.w3.org/2000/svg">
  <sodipodi:namedview
     id="namedview1"
     pagecolor="#ffffff"
     bordercolor="#000000"
     borderopacity="0.25"
     inkscape:showpageshadow="2"
     inkscape:pageopacity="0.0"
     inkscape:pagecheckerboard="0"
     inkscape:deskcolor="#d1d1d1"
     inkscape:zoom="14.653845"
     inkscape:cx="11.805775"
     inkscape:cy="19.687666"
     inkscape:window-width="2560"
     inkscape:window-height="1361"
     inkscape:window-x="1911"
     inkscape:window-y="-9"
     inkscape:window-maximized="1"
     inkscape:current-layer="svg21" />
  <defs
     id="defs21" />
  <path
     fill-rule="evenodd"
     clip-rule="evenodd"
     d="M 7.23988,36.6967 C 5.45585,37.0695 3.61193,36.5569 2.21132,35.2987 0.810904,34.0405 0,32.1697 0,30.1944 0,23.8682 0,15.086 0,8.7597999 c 0,-1.97535 0.810904,-3.84615 2.21132,-5.10434 1.40061,-1.25818 3.24453,-1.77076 5.02856,-1.39797 3.51452,0.73423 7.60382,1.58779 10.55392,2.20381 2.3304,0.48645 4.0152,2.7039 4.0152,5.2828 V 29.2101 c 0,2.5789 -1.6848,4.7963 -4.0152,5.2828 -2.9501,0.616 -7.0394,1.4696 -10.55392,2.2038 z"
     fill="#ffdecb"
     id="path15"
     style="fill:#e0c6fb" />
  <path
     fill-rule="evenodd"
     clip-rule="evenodd"
     d="M 12.0347,37.6635 C 10.3093,38.0243 8.52579,37.5289 7.17129,36.3117 5.81661,35.0958 5.03234,33.2843 5.03234,31.3752 c 0,-6.8789 0,-16.8746 0,-23.7535001 0,-1.91029 0.78427,-3.72055 2.13895,-4.93651 1.3545,-1.21716 3.13801,-1.71258996 4.86341,-1.35173 3.9341,0.82057 8.6956,1.81501 11.9667,2.49862 2.2541,0.47042 3.8835,2.61414 3.8835,5.10919 0,5.6391301 0,15.4752301 0,21.1144301 0,2.495 -1.6294,4.6387 -3.8835,5.1092 -3.2711,0.6836 -8.0326,1.678 -11.9667,2.4986 z"
     fill="#ffbe98"
     id="path16"
     style="fill:#c794fb" />
  <path
     fill-rule="evenodd"
     clip-rule="evenodd"
     d="m 18.579,38.8924 c -1.9555,0.3687 -3.9613,-0.2204 -5.48,-1.6089 -1.5188,-1.3885 -2.3954,-3.437 -2.3954,-5.5944 0,-7.1476 0,-17.2306 0,-24.3781701 0,-2.15872 0.8766,-4.20595 2.3954,-5.59443 1.5187,-1.38847396 3.5245,-1.97757196 5.48,-1.60891696 3.7741,0.711977 8.1794,1.54430696 11.4782,2.16633696 2.8642,0.54095 4.9554,3.24315 4.9554,6.40269 V 30.3234 c 0,3.1595 -2.0912,5.8617 -4.9554,6.4027 -3.2988,0.622 -7.7041,1.4543 -11.4782,2.1663 z"
     fill="#ff6709"
     id="path17"
     style="fill:#8506fb" />
  <path
     fill-rule="evenodd"
     clip-rule="evenodd"
     d="m 18.579,38.8924 c -1.9555,0.3687 -3.9613,-0.2204 -5.48,-1.6089 -1.5188,-1.3885 -2.3954,-3.437 -2.3954,-5.5944 0,-7.1476 0,-17.2306 0,-24.3781701 0,-2.15872 0.8766,-4.20595 2.3954,-5.59443 1.5187,-1.38847396 3.5245,-1.97757196 5.48,-1.60891696 3.7741,0.711977 8.1794,1.54430696 11.4782,2.16633696 2.8642,0.54095 4.9554,3.24315 4.9554,6.40269 V 30.3234 c 0,3.1595 -2.0912,5.8617 -4.9554,6.4027 -3.2988,0.622 -7.7041,1.4543 -11.4782,2.1663 z"
     fill="#ff9354"
     id="path18"
     style="fill:#a050fb" />
  <path
     fill-rule="evenodd"
     clip-rule="evenodd"
     d="M 10.7036,10.4059 V 7.3109299 c 0,-2.15872 0.8766,-4.20595 2.3954,-5.59443 1.5187,-1.38847396 3.5245,-1.97757196 5.48,-1.60891696 L 30.0572,2.2739199 c 2.8642,0.54095 4.9554,3.24315 4.9554,6.40269 V 11.337 Z"
     fill="#ff6709"
     id="path19"
     style="fill:#8506fb" />
  <path
     fill-rule="evenodd"
     clip-rule="evenodd"
     d="m 21.9616,15.8296 c 0,-0.1714 0.069,-0.3355 0.1908,-0.4557 0.1218,-0.1206 0.2882,-0.1868 0.4588,-0.184 0.7998,0.0126 2.1437,0.0337 2.9313,0.0459 0.3492,0.0057 0.6293,0.2904 0.6293,0.64 0,0.5248 0,1.2688 0,1.7964 0,0.1698 -0.0649,0.3326 -0.1867,0.4524 -0.1178,0.1203 -0.2842,0.1877 -0.4507,0.1873 -0.7958,-4e-4 -2.1396,-0.0012 -2.9313,-0.0016 -0.3532,-4e-4 -0.6415,-0.2868 -0.6415,-0.6401 0,-0.5369 0,-1.3005 0,-1.8406 z m 0,6.2427 c 0,-0.3472 0.2761,-0.6311 0.6252,-0.6396 0.7836,-0.0195 2.1315,-0.0529 2.9313,-0.0728 0.1706,-0.0044 0.337,0.061 0.4629,0.1816 0.1218,0.1202 0.1908,0.2855 0.1908,0.4581 0,0.5207 0,1.2436 0,1.7529 0,0.3424 -0.268,0.6243 -0.609,0.6393 -0.7836,0.0341 -2.1274,0.093 -2.9313,0.1279 -0.1746,0.0077 -0.3451,-0.056 -0.471,-0.177 -0.1259,-0.1207 -0.1989,-0.2876 -0.1989,-0.4622 0,-0.5361 0,-1.2838 0,-1.8082 z m 0,6.1965 c 0,-0.3355 0.2598,-0.6145 0.5927,-0.6381 0.7755,-0.0548 2.1194,-0.1506 2.9314,-0.2083 0.1786,-0.0126 0.3532,0.0487 0.4831,0.1698 0.1299,0.121 0.203,0.2908 0.203,0.4683 0,0.5389 0,1.2813 0,1.7927 0,0.3322 -0.2517,0.6092 -0.5846,0.6376 -0.7674,0.0662 -2.1113,0.1819 -2.9314,0.2526 -0.1786,0.0154 -0.3532,-0.0451 -0.4872,-0.1661 -0.1299,-0.121 -0.207,-0.2924 -0.207,-0.4715 0,-0.5516 0,-1.3135 0,-1.837 z m -3.0369,2.209 c 0,0.3322 -0.2517,0.6092 -0.5847,0.6376 -0.885,0.076 -2.5578,0.2202 -3.4997,0.3018 -0.1787,0.0154 -0.3573,-0.0451 -0.4872,-0.1661 -0.134,-0.1215 -0.2071,-0.2924 -0.2071,-0.4715 0,-0.582 0,-1.4033 0,-1.9548 0,-0.3359 0.2598,-0.6145 0.5928,-0.6384 0.8891,-0.0634 2.5619,-0.182 3.4998,-0.249 0.1786,-0.0126 0.3531,0.0491 0.4831,0.1702 0.1299,0.121 0.203,0.2908 0.203,0.4682 0,0.5674 0,1.3639 0,1.902 z m 0,-6.4085 c 0,0.3428 -0.268,0.6243 -0.6131,0.6393 -0.8973,0.0394 -2.57,0.1125 -3.4997,0.1531 -0.1746,0.0077 -0.3452,-0.056 -0.471,-0.1771 -0.1259,-0.1206 -0.1949,-0.2875 -0.1949,-0.4622 0,-0.5738 0,-1.3946 0,-1.9555 0,-0.3473 0.2761,-0.6312 0.6212,-0.6397 0.9095,-0.0227 2.5781,-0.0642 3.5038,-0.0873 0.1705,-0.0041 0.337,0.0613 0.4629,0.1819 0.1218,0.1203 0.1908,0.2856 0.1908,0.4582 0,0.5556 0,1.3463 0,1.8893 z m 10.284,-8.1256 c 0,-0.1714 0.069,-0.3359 0.1908,-0.4561 0.1218,-0.1202 0.2883,-0.1864 0.4588,-0.184 0.7593,0.0122 1.9975,0.0317 2.7446,0.0435 0.3491,0.0052 0.6293,0.2904 0.6293,0.6396 0,0.4976 0,1.1892 0,1.6896 0,0.1698 -0.069,0.3326 -0.1868,0.4528 -0.1218,0.1198 -0.2842,0.1873 -0.4547,0.1873 -0.7511,-4e-4 -1.9894,-0.0013 -2.7405,-0.0017 -0.3532,-4e-4 -0.6415,-0.2867 -0.6415,-0.6401 0,-0.5093 0,-1.2188 0,-1.7309 z m 0,5.9483 c 0,-0.3473 0.2801,-0.6311 0.6252,-0.6397 0.743,-0.0182 1.9854,-0.0491 2.7406,-0.0682 0.1745,-0.0041 0.341,0.0613 0.4628,0.1819 0.1259,0.1203 0.1949,0.2856 0.1949,0.4578 0,0.4865 0,1.1445 0,1.6196 0,0.3428 -0.272,0.6247 -0.6131,0.6397 -0.7389,0.0321 -1.9772,0.0865 -2.7405,0.1198 -0.1746,0.0077 -0.3451,-0.0564 -0.471,-0.177 -0.1258,-0.1207 -0.1989,-0.2876 -0.1989,-0.4622 0,-0.5012 0,-1.1815 0,-1.6717 z m 0,5.8618 c 0,-0.3359 0.2599,-0.6145 0.5968,-0.6384 0.7309,-0.052 1.9692,-0.1401 2.7406,-0.195 0.1786,-0.0126 0.3532,0.0492 0.4831,0.1702 0.1299,0.121 0.203,0.2908 0.203,0.4683 0,0.5109 0,1.2005 0,1.6858 0,0.3323 -0.2558,0.6093 -0.5846,0.6377 -0.7268,0.0629 -1.9692,0.1698 -2.7446,0.2364 -0.1787,0.0154 -0.3533,-0.0447 -0.4872,-0.1661 -0.13,-0.1211 -0.2071,-0.2921 -0.2071,-0.4716 0,-0.5227 0,-1.2306 0,-1.7273 z"
     fill="#ff6709"
     id="path20"
     style="fill:#8506fb" />
  <path
     fill-rule="evenodd"
     clip-rule="evenodd"
     d="m 19.3538,14.0807 c 0.1058,-0.1121 0.2807,-0.1277 0.4048,-0.037 0.1262,0.0909 0.1669,0.2606 0.0937,0.3978 -0.6572,1.2395 -1.469,2.7722 -1.9512,3.6858 -0.0997,0.1867 -0.2808,0.3156 -0.4904,0.3475 -0.2075,0.0321 -0.4191,-0.0367 -0.5697,-0.1856 -0.6002,-0.5937 -1.4974,-1.483 -2.1363,-2.1166 -0.0997,-0.0979 -0.12,-0.249 -0.0529,-0.3705 0.0651,-0.122 0.2055,-0.1845 0.3398,-0.1537 0.47,0.1071 1.0153,0.2316 1.4608,0.3336 0.5494,0.1252 1.1231,-0.0469 1.5138,-0.4534 0.3845,-0.4028 0.8972,-0.9382 1.3876,-1.4479 z"
     fill="#ff6709"
     id="path21"
     style="fill:#8506fb" />
  <g
     inkscape:groupmode="layer"
     id="layer1"
     inkscape:label="Layer 1" />
</svg>
