<svg xmlns:xlink="http://www.w3.org/1999/xlink" xmlns="http://www.w3.org/2000/svg" fill="none" viewBox="0 0 87.5 72" width="87.5"  height="72" ><SCRIPT xmlns="" id="allow-copy_script"/>
	<path fill="#00832d" d="M49.5 36l8.53 9.75 11.47 7.33 2-17.02-2-16.64-11.69 6.44z"/>
	<path fill="#0066da" d="M0 51.5V66c0 3.315 2.685 6 6 6h14.5l3-10.96-3-9.54-9.95-3z"/>
	<path fill="#e94235" d="M20.5 0L0 20.5l10.55 3 9.95-3 2.95-9.41z"/>
	<path fill="#2684fc" d="M20.5 20.5H0v31h20.5z"/>
	<path fill="#00ac47" d="M82.6 8.68L69.5 19.42v33.66l13.16 10.79c1.97 1.54 4.85.135 4.85-2.37V11c0-2.535-2.945-3.925-4.91-2.32zM49.5 36v15.5h-29V72h43c3.315 0 6-2.685 6-6V53.08z"/>
	<path fill="#ffba00" d="M63.5 0h-43v20.5h29V36l20-16.57V6c0-3.315-2.685-6-6-6z"/>
<style xmlns="" class="darkreader darkreader--fallback">html, body, body :not(iframe) {
    background-color: var(--darkreader-background-ffffff, #131516) !important;
    border-color: var(--darkreader-border-404040, #776d61) !important;
    color: var(--darkreader-text-000000, #edebe8) !important;
}
div[style*="background-color: rgb(135, 135, 135)"] {
    background-color: #878787 !important;
}</style><script xmlns="" id="vsc-settings-data">{"audioBoolean":false,"blacklist":"www.instagram.com\ntwitter.com\nvine.co\nimgur.com\nteams.microsoft.com\n","controllerButtonSize":14,"controllerOpacity":0.3,"defaultLogLevel":4,"displayKeyCode":86,"enabled":true,"forceLastSavedSpeed":false,"keyBindings":[{"action":"slower","force":false,"key":83,"predefined":true,"value":0.1},{"action":"faster","force":false,"key":68,"predefined":true,"value":0.1},{"action":"rewind","force":false,"key":90,"predefined":true,"value":10},{"action":"advance","force":false,"key":88,"predefined":true,"value":10},{"action":"reset","force":false,"key":82,"predefined":true,"value":1.8},{"action":"fast","force":false,"key":71,"predefined":true,"value":1.8},{"action":"display","force":false,"key":86,"predefined":true,"value":0}],"lastSpeed":1,"logLevel":3,"rememberSpeed":false,"speeds":{"blob:https://www.youtube.com/0122b749-fdb4-479e-9f1a-ffc43ecd00ea":1,"blob:https://www.youtube.com/3671c558-3410-40c8-9158-c28a16dfe585":1,"blob:https://www.youtube.com/3d7301e5-7934-4230-bff4-847508ec66b1":1,"blob:https://www.youtube.com/41be4d06-3353-489b-a120-b3bec01dd75d":1,"blob:https://www.youtube.com/4c5abb78-66ee-4a12-b623-5e2816effb1a":1,"blob:https://www.youtube.com/653a29ed-c05d-493c-a727-6421995d7889":1,"blob:https://www.youtube.com/6c1b7490-6711-4705-8f14-9cb91aa2a403":1,"blob:https://www.youtube.com/7a117439-8e3a-41af-a619-b29d2c7efc0d":1,"blob:https://www.youtube.com/7c98ae83-5251-45d1-9600-a1be391f1670":1,"blob:https://www.youtube.com/81d81cd6-0b35-4658-98ae-69b852b32cd9":1,"blob:https://www.youtube.com/956d6966-43ca-4ffd-accd-b01f36a61ec5":1,"blob:https://www.youtube.com/a258423c-9d8b-4986-a853-3192d6295eda":1,"blob:https://www.youtube.com/a6050744-83b3-471c-aa28-d234cdb89467":1,"blob:https://www.youtube.com/a7932d57-2791-414d-a820-b98a457875f5":1,"blob:https://www.youtube.com/b134b4d8-a936-472e-aa82-0ccb66730048":1,"blob:https://www.youtube.com/c372e72f-60c9-4e70-93a5-76def8de50aa":1,"blob:https://www.youtube.com/cebc0964-3a4a-4e3f-8388-2fb56467263c":1,"blob:https://www.youtube.com/d5f1f28b-a1bd-43de-801b-43ede88fb192":1,"blob:https://www.youtube.com/fdd47997-5c23-48ea-8254-34822bd11369":1},"startHidden":false,"version":"0.5.3"}</script><script xmlns=""/></svg>