<svg xmlns:xlink="http://www.w3.org/1999/xlink" xmlns="http://www.w3.org/2000/svg" fill="none" viewBox="4 4 36 38" width="36"  height="38" ><SCRIPT xmlns="" id="allow-copy_script"/><path fill="url(#a)" d="M21.9999 20h12c3.3137 0 6 2.6863 6 6v10c0 3.3137-2.6863 6-6 6s-6-2.6863-6-6V26c0-3.3137-2.6863-6-6-6"/><path fill="url(#b)" d="M7.99988 24c0-3.3137 2.68632-6 6.00002-6h8c3.3137 0 6 2.6863 6 6v12c0 3.3137 2.6863 6 6 6l-16.0001-.0001c-5.5228 0-9.99992-4.4771-9.99992-10z"/><path fill="url(#c)" fill-opacity=".7" d="M7.99988 24c0-3.3137 2.68632-6 6.00002-6h8c3.3137 0 6 2.6863 6 6v12c0 3.3137 2.6863 6 6 6l-16.0001-.0001c-5.5228 0-9.99992-4.4771-9.99992-10z"/><path fill="url(#d)" fill-opacity=".7" d="M7.99988 24c0-3.3137 2.68632-6 6.00002-6h8c3.3137 0 6 2.6863 6 6v12c0 3.3137 2.6863 6 6 6l-16.0001-.0001c-5.5228 0-9.99992-4.4771-9.99992-10z"/><path fill="url(#e)" d="M32.9999 18c2.7614 0 5-2.2386 5-5s-2.2386-5-5-5-5 2.2386-5 5 2.2386 5 5 5"/><path fill="url(#f)" fill-opacity=".46" d="M32.9999 18c2.7614 0 5-2.2386 5-5s-2.2386-5-5-5-5 2.2386-5 5 2.2386 5 5 5"/><path fill="url(#g)" fill-opacity=".4" d="M32.9999 18c2.7614 0 5-2.2386 5-5s-2.2386-5-5-5-5 2.2386-5 5 2.2386 5 5 5"/><path fill="url(#h)" d="M17.9999 16c3.3137 0 6-2.6863 6-6 0-3.31371-2.6863-6-6-6s-6 2.68629-6 6c0 3.3137 2.6863 6 6 6"/><path fill="url(#i)" fill-opacity=".6" d="M17.9999 16c3.3137 0 6-2.6863 6-6 0-3.31371-2.6863-6-6-6s-6 2.68629-6 6c0 3.3137 2.6863 6 6 6"/><path fill="url(#j)" fill-opacity=".5" d="M17.9999 16c3.3137 0 6-2.6863 6-6 0-3.31371-2.6863-6-6-6s-6 2.68629-6 6c0 3.3137 2.6863 6 6 6"/><rect width="16" height="16" x="4" y="23" fill="url(#k)" rx="3.25"/><rect width="16" height="16" x="4" y="23" fill="url(#l)" fill-opacity=".7" rx="3.25"/><path fill="#fff" d="M15.4792 28.1054h-2.4471v7.466h-2.0648v-7.466H8.52014v-1.6768h6.95906z"/><defs><radialGradient id="a" cx="0" cy="0" r="1" gradientTransform="matrix(13.4784 0 0 33.2694 39.7967 22.1739)" gradientUnits="userSpaceOnUse"><stop stop-color="#a98aff"/><stop offset=".14" stop-color="#8c75ff"/><stop offset=".565" stop-color="#5f50e2"/><stop offset=".9" stop-color="#3c2cb8"/></radialGradient><radialGradient id="b" cx="0" cy="0" r="1" gradientTransform="rotate(68.1539 -7.71566095 14.71355834)scale(32.752 33.1231)" gradientUnits="userSpaceOnUse"><stop stop-color="#85c2ff"/><stop offset=".69" stop-color="#7588ff"/><stop offset="1" stop-color="#6459fe"/></radialGradient><radialGradient id="d" cx="0" cy="0" r="1" gradientTransform="rotate(113.326 8.09285255 17.64474501)scale(19.2186 15.4273)" gradientUnits="userSpaceOnUse"><stop stop-color="#bd96ff"/><stop offset=".686685" stop-color="#bd96ff" stop-opacity="0"/></radialGradient><radialGradient id="e" cx="0" cy="0" r="1" gradientTransform="matrix(0 -10 12.6216 0 32.9999 11.5714)" gradientUnits="userSpaceOnUse"><stop offset=".268201" stop-color="#6868f7"/><stop offset="1" stop-color="#3923b1"/></radialGradient><radialGradient id="f" cx="0" cy="0" r="1" gradientTransform="rotate(40.0516 -.03068196 44.8729095)scale(7.14629 10.3363)" gradientUnits="userSpaceOnUse"><stop offset=".270711" stop-color="#a1d3ff"/><stop offset=".813393" stop-color="#a1d3ff" stop-opacity="0"/></radialGradient><radialGradient id="g" cx="0" cy="0" r="1" gradientTransform="rotate(-41.6581 32.11799918 -43.41948423)scale(8.51275 20.8824)" gradientUnits="userSpaceOnUse"><stop stop-color="#e3acfd"/><stop offset=".816041" stop-color="#9fa2ff" stop-opacity="0"/></radialGradient><radialGradient id="h" cx="0" cy="0" r="1" gradientTransform="matrix(0 -12 15.146 0 17.9999 8.28571)" gradientUnits="userSpaceOnUse"><stop offset=".268201" stop-color="#8282ff"/><stop offset="1" stop-color="#3923b1"/></radialGradient><radialGradient id="i" cx="0" cy="0" r="1" gradientTransform="rotate(40.0516 -3.15465147 21.41641466)scale(8.57554 12.4035)" gradientUnits="userSpaceOnUse"><stop offset=".270711" stop-color="#a1d3ff"/><stop offset=".813393" stop-color="#a1d3ff" stop-opacity="0"/></radialGradient><radialGradient id="j" cx="0" cy="0" r="1" gradientTransform="rotate(-41.6581 20.38180375 -26.51566158)scale(10.2153 25.0589)" gradientUnits="userSpaceOnUse"><stop stop-color="#e3acfd"/><stop offset=".816041" stop-color="#9fa2ff" stop-opacity="0"/></radialGradient><radialGradient id="k" cx="0" cy="0" r="1" gradientTransform="rotate(45 -25.76345597 16.32842712)scale(22.6274)" gradientUnits="userSpaceOnUse"><stop offset=".046875" stop-color="#688eff"/><stop offset=".946875" stop-color="#230f94"/></radialGradient><radialGradient id="l" cx="0" cy="0" r="1" gradientTransform="matrix(0 11.2 -13.0702 0 12 32.6)" gradientUnits="userSpaceOnUse"><stop offset=".570647" stop-color="#6965f6" stop-opacity="0"/><stop offset="1" stop-color="#8f8fff"/></radialGradient><linearGradient id="c" x1="20.5936" x2="20.5936" y1="18" y2="42" gradientUnits="userSpaceOnUse"><stop offset=".801159" stop-color="#6864f6" stop-opacity="0"/><stop offset="1" stop-color="#5149de"/></linearGradient></defs><script xmlns="" id="vsc-settings-data">{"audioBoolean":false,"blacklist":"www.instagram.com\ntwitter.com\nvine.co\nimgur.com\nteams.microsoft.com\n","controllerButtonSize":14,"controllerOpacity":0.3,"defaultLogLevel":4,"displayKeyCode":86,"enabled":true,"forceLastSavedSpeed":false,"keyBindings":[{"action":"slower","force":false,"key":83,"predefined":true,"value":0.1},{"action":"faster","force":false,"key":68,"predefined":true,"value":0.1},{"action":"rewind","force":false,"key":90,"predefined":true,"value":10},{"action":"advance","force":false,"key":88,"predefined":true,"value":10},{"action":"reset","force":false,"key":82,"predefined":true,"value":1.8},{"action":"fast","force":false,"key":71,"predefined":true,"value":1.8},{"action":"display","force":false,"key":86,"predefined":true,"value":0}],"lastSpeed":1,"logLevel":3,"rememberSpeed":false,"speeds":{"blob:https://www.youtube.com/0122b749-fdb4-479e-9f1a-ffc43ecd00ea":1,"blob:https://www.youtube.com/3671c558-3410-40c8-9158-c28a16dfe585":1,"blob:https://www.youtube.com/3d7301e5-7934-4230-bff4-847508ec66b1":1,"blob:https://www.youtube.com/41be4d06-3353-489b-a120-b3bec01dd75d":1,"blob:https://www.youtube.com/4c5abb78-66ee-4a12-b623-5e2816effb1a":1,"blob:https://www.youtube.com/653a29ed-c05d-493c-a727-6421995d7889":1,"blob:https://www.youtube.com/6c1b7490-6711-4705-8f14-9cb91aa2a403":1,"blob:https://www.youtube.com/7a117439-8e3a-41af-a619-b29d2c7efc0d":1,"blob:https://www.youtube.com/7c98ae83-5251-45d1-9600-a1be391f1670":1,"blob:https://www.youtube.com/81d81cd6-0b35-4658-98ae-69b852b32cd9":1,"blob:https://www.youtube.com/956d6966-43ca-4ffd-accd-b01f36a61ec5":1,"blob:https://www.youtube.com/a258423c-9d8b-4986-a853-3192d6295eda":1,"blob:https://www.youtube.com/a6050744-83b3-471c-aa28-d234cdb89467":1,"blob:https://www.youtube.com/a7932d57-2791-414d-a820-b98a457875f5":1,"blob:https://www.youtube.com/b134b4d8-a936-472e-aa82-0ccb66730048":1,"blob:https://www.youtube.com/c372e72f-60c9-4e70-93a5-76def8de50aa":1,"blob:https://www.youtube.com/cebc0964-3a4a-4e3f-8388-2fb56467263c":1,"blob:https://www.youtube.com/d5f1f28b-a1bd-43de-801b-43ede88fb192":1,"blob:https://www.youtube.com/fdd47997-5c23-48ea-8254-34822bd11369":1},"startHidden":false,"version":"0.5.3"}</script><script xmlns=""/><style xmlns="" class="darkreader darkreader--fallback">html, body, body :not(iframe) {
    background-color: var(--darkreader-background-ffffff, #131516) !important;
    border-color: var(--darkreader-border-404040, #776d61) !important;
    color: var(--darkreader-text-000000, #edebe8) !important;
}
div[style*="background-color: rgb(135, 135, 135)"] {
    background-color: #878787 !important;
}</style></svg>